# xmcd
#
# Track frame offsets:
#	150
#	12021
#	32847
#	53456
#	65220
#	86046
#	97509
#	118908
#	140523
#	162286
#	179311
#	201500
#	221520
#	234827
#
# Disc length: 3560 seconds
#
# Revision: 1
# Processed by: cddbd v1.5.2PL0 Copyright (c) Steve Scherf et al.
# Submitted via: audiograbber 1.83.01
#
DISCID=ba0de60e
DTITLE=Schaumburger Trachtenkapelle - Acht Bier, fünf Cola, zwei Wasser
DYEAR=2002
DGENRE=Folklore
TTITLE0=Beckedorfer
TTITLE1=Pollhäger Kauhdanz (Klapperschlunz)
TTITLE2=Windmühlenflügel
TTITLE3=Mein Mann ist gefahren ins Heu
TTITLE4=Maike wut du noch nicht up un melken dine Kauh
TTITLE5=Krüp dürn Tun
TTITLE6=Holländischen Buhrdanz
TTITLE7=Obernkirchener Tampete
TTITLE8=Vörn Holte rup (Holtruper)
TTITLE9=Klaterkütchen
TTITLE10=Settedanz
TTITLE11=Freischütz
TTITLE12=Seben Ellen Bottermelk
TTITLE13=Kegel Quadrille
EXTD=
EXTT0=
EXTT1=
EXTT2=
EXTT3=
EXTT4=
EXTT5=
EXTT6=
EXTT7=
EXTT8=
EXTT9=
EXTT10=
EXTT11=
EXTT12=
EXTT13=
PLAYORDER=
